<svg xmlns="http://www.w3.org/2000/svg" width="64" height="64" viewBox="0 0 379 57" class="icons"><title>Logo ADR Nieuwsmedia</title>
	<path fill="#D10A10" d="M57 44V13h2.93c8.408-.207 14.11 4.626 14.07 15.5.04 11.158-5.377 15.707-13.928 15.5H57zM37 0l20 57h4c19.453 0 30-11.656 30-28.5C91 11.372 80.595 0 61 0H37zM22.113 34.495l5.36-17.95 5.388 17.95H22.114zM20 0L0 57h15.453l2.835-9.674 18.415-.044L39.585 57H55L35 0H20z"/>
	<path fill="#292929" d="M75.176.746s4.702 1.408 6.654 3.016c6.882-.31 9.045.137 11.103 1.163 3.426 1.598 5.52 4.6 5.52 10.23 0 3.288-.643 8.558-5.117 10.588.152 1.466.152 3.248.152 3.248s5.347-.794 9.112-3.688c3.356-2.58 4.986-6.208 4.986-10.148 0-3.78-.85-6.63-4.878-10.23C94.583-2.01 75.176.747 75.176.747zM121.997 56.987v-2.902h-.514c-2.523 0-4.665-.543-6.387-1.628-2.724-1.54-6.09-4.97-10.006-10.205l-2.85-3.72c-.957-1.302-1.955-2.553-2.97-3.717-1.006-1.16-1.988-2.278-2.968-3.38-1.012-.982-2.814-2.444-2.814-2.444s-.555 6.955-1.5 9.958c.738 1.01 1.52 2.11 2.356 3.322l2.693 3.99c1.254 1.782 5.996 8.272 9.532 10.74l15.427-.013z"/>
	<g transform="translate(137 26)" fill="#292929">
		<path d="M6.217 2.764L6.087 25.8c0 1.55.39 2.632 1.174 3.24.785.61 2.175.927 4.174.958V31H0v-1.002c2.182-.152 3.55-.548 4.103-1.186.553-.64.83-2.13.83-4.47l.04-16.652c0-2.98-.216-4.82-.646-5.52-.4-.668-1.614-1.003-3.642-1.003h-.23V.164h8.99l17.98 23.63.092-18.065c0-.883-.085-1.613-.254-2.19-.17-.577-.446-1.04-.83-1.392-.384-.35-.915-.6-1.59-.753-.677-.15-1.522-.228-2.536-.228V.164h11.11v1.003c-1.905.153-3.18.563-3.826 1.232-.614.668-.92 1.885-.92 3.65V31h-.97L6.218 2.764zM58.44 17.4c.03-.154.047-.305.047-.456v-.455c0-1.276-.36-2.283-1.08-3.027-.718-.743-1.69-1.114-2.912-1.114-2.723 0-4.33 1.68-4.82 5.05h8.766zm-8.855.863l-.046.41c-.032.15-.047.348-.047.59v.955c0 3.944.703 6.628 2.11 8.052 1.07 1.063 2.37 1.593 3.9 1.593 2.693 0 4.62-1.212 5.783-3.64h1.055c-.488 1.456-1.414 2.617-2.775 3.48-1.362.865-2.93 1.297-4.703 1.297-2.6 0-4.772-.91-6.516-2.73-1.744-1.82-2.616-4.108-2.616-6.868 0-2.88.84-5.263 2.524-7.144 1.682-1.91 3.778-2.865 6.286-2.865 2.233 0 4.07.653 5.507 1.956 1.498 1.273 2.264 2.912 2.294 4.913H49.586zM83.005 23.72c0 2.73.106 4.248.32 4.55.336.637 1.147.956 2.432.956h.184v1.045h-.458c-1.897 0-3.488.244-4.772.73h-.23c-.49-.82-.734-2.275-.734-4.368h-.09C77.755 29.542 75.28 31 72.22 31c-1.254 0-2.4-.327-3.44-.98-1.042-.65-1.698-1.477-1.974-2.478-.214-.696-.32-1.79-.32-3.275v-6.46c0-2.578-.124-4.063-.37-4.46-.336-.635-1.177-.954-2.522-.954h-.275v-1.046h6.468V24.45c0 1.85.276 3.145.826 3.89.55.742 1.515 1.113 2.89 1.113 1.745 0 3.306-.802 4.682-2.41.672-.82 1.1-1.593 1.285-2.32.153-.456.23-1.32.23-2.595v-4.322c0-2.577-.123-4.062-.367-4.458-.337-.636-1.178-.955-2.523-.955h-.46v-1.046h6.655V23.72zM107.98 31l-5.69-14.92L96.507 31h-1.01l-6.424-16.47c-.55-1.363-1.422-2.046-2.616-2.046h-.274V11.44h8.718v1.044h-.32c-1.47 0-2.204.41-2.204 1.23 0 .273.138.758.413 1.456l4.727 11.19 5.553-14.92h.872l5.69 15.056 4.68-11.827c.184-.456.276-.76.276-.91 0-.79-.797-1.213-2.386-1.276V11.44h6.195v1.044c-.888.063-1.515.237-1.882.524-.368.29-.734.858-1.1 1.707-.063.15-.124.348-.185.59-.06.243-.168.502-.32.775L108.99 31h-1.01zM119.015 24.904h.872c1.01 3.458 2.845 5.186 5.506 5.186.948 0 1.736-.302 2.364-.91.626-.606.94-1.378.94-2.32 0-.94-.306-1.714-.917-2.32-.306-.302-.75-.644-1.33-1.024-.582-.38-1.316-.78-2.204-1.204-2.325-1.123-3.84-2.29-4.542-3.504-.43-.788-.642-1.606-.642-2.457 0-.697.13-1.348.39-1.954.258-.607.62-1.13 1.078-1.57.46-.44.993-.79 1.606-1.048.61-.256 1.284-.385 2.02-.385 1.437 0 2.706.636 3.807 1.91.276-.272.566-.802.873-1.59h.826v5.64h-.826c-.307-1.456-.895-2.646-1.768-3.57-.87-.926-1.858-1.388-2.96-1.388-.856 0-1.575.265-2.156.795-.58.53-.872 1.175-.872 1.934 0 .424.07.803.207 1.137.138.334.367.66.688.978.32.32.764.637 1.33.956.567.32 1.263.66 2.088 1.023 2.295 1.032 3.793 2.064 4.498 3.095.704.97 1.056 2.077 1.056 3.32 0 1.577-.513 2.865-1.537 3.867-1.027 1-2.364 1.5-4.017 1.5-1.59 0-3.105-.667-4.542-2.002-.428.455-.75 1.063-.963 1.82h-.872v-5.914zM138.64 12.076c.396 1.152.595 2.305.595 3.457v.41h.138c1.896-2.578 4.145-3.867 6.745-3.867 3.12 0 5.047 1.38 5.782 4.14.61-.76 1.216-1.403 1.813-1.935.596-.528 1.162-.96 1.697-1.294.536-.334 1.11-.568 1.72-.706.613-.136 1.287-.204 2.02-.204 2.08 0 3.625.697 4.635 2.093.612.848.918 2.562.918 5.14v5.46c0 2.577.092 4.002.275 4.274.337.637 1.147.956 2.432.956h.368v1H158.6v-1h.183c1.163 0 1.912-.196 2.25-.592.274-.333.412-1.076.412-2.23v-8.46c0-1.91-.26-3.215-.78-3.912-.52-.698-1.485-1.047-2.89-1.047-1.868 0-3.795 1.288-5.783 3.867v7.142c0 2.577.107 4.002.32 4.274.306.637 1.04.956 2.203.956h.14v1h-8.858v-1h.23c1.192 0 1.942-.196 2.248-.592.244-.333.397-1.076.46-2.23v-7.414c.03-2.426-.216-4.05-.736-4.867-.49-.79-1.53-1.183-3.12-1.183-1.653 0-3.443 1.076-5.37 3.23l-.275.272v7.553c0 2.546.122 3.972.367 4.274.337.637 1.1.956 2.294.956h.184v1h-8.994v-1h.23c1.193 0 1.957-.196 2.294-.592.245-.333.397-1.076.46-2.23v-7.87c.03-2.486-.078-3.912-.323-4.275-.275-.576-1.086-.864-2.432-.864h-.23v-1.05c1.01-.09 1.958-.226 2.846-.408.888-.182 1.714-.394 2.48-.636h.23zM182.146 17.4c.03-.154.046-.305.046-.456v-.455c0-1.276-.36-2.283-1.08-3.027-.718-.743-1.688-1.114-2.912-1.114-2.723 0-4.33 1.68-4.818 5.05h8.764zm-8.856.863l-.045.41c-.03.15-.047.348-.047.59v.955c0 3.944.704 6.628 2.11 8.052 1.072 1.063 2.372 1.593 3.902 1.593 2.69 0 4.618-1.212 5.78-3.64h1.057c-.49 1.456-1.415 2.617-2.776 3.48-1.36.865-2.93 1.297-4.702 1.297-2.602 0-4.773-.91-6.517-2.73-1.743-1.82-2.614-4.108-2.614-6.868 0-2.88.84-5.263 2.523-7.144 1.682-1.91 3.777-2.865 6.286-2.865 2.232 0 4.068.653 5.506 1.956 1.5 1.273 2.264 2.912 2.295 4.913H173.29zM231.61 20.58c-3.826 1.548-5.737 3.475-5.737 5.78 0 2.123.917 3.183 2.752 3.183 1.316 0 3.136-.94 5.46-2.82V19.58l-2.476 1zm9.818 6.734C241.275 29.77 240.02 31 237.665 31c-1.99 0-3.182-1.03-3.58-3.093C231.058 29.97 228.596 31 226.7 31c-1.284 0-2.356-.35-3.212-1.048-.857-.696-1.285-1.575-1.285-2.638 0-1.79 1.026-3.336 3.075-4.64 1.47-.94 3.243-1.865 5.323-2.775l3.488-1.366v-.91c0-1.848-.306-3.13-.917-3.844-.614-.71-1.715-1.068-3.305-1.068-2.234 0-3.458.667-3.672 2l-.09.502c-.277 1.334-.92 2.002-1.93 2.002-.856 0-1.284-.44-1.284-1.32 0-1.06.718-2.016 2.156-2.867 1.47-.848 3.197-1.274 5.186-1.274 3.7 0 5.95 1.137 6.745 3.412.214.516.322 1.5.322 2.957v8.916c0 1.64.488 2.458 1.467 2.458.948 0 1.56-.727 1.836-2.184h.825zM214.234 4.73c1.295 0 2.345-1.042 2.345-2.327S215.53.076 214.233.076c-1.295 0-2.345 1.042-2.345 2.327s1.05 2.327 2.344 2.327zm2.31 20.084c0 2.456.106 3.883.32 4.276.305.576 1.086.865 2.34.865h.505V31h-9.82v-1.045h.734c1.1 0 1.827-.167 2.18-.5.35-.334.527-1.093.527-2.276v-7.825c0-2.336-.153-3.76-.458-4.277-.275-.485-1.07-.728-2.386-.728h-.597v-1.045c1.285-.153 2.432-.312 3.44-.478 1.01-.167 1.912-.418 2.708-.75h.505v12.737zM40.654 24.738c0 2.457.107 3.883.32 4.277.306.575 1.087.864 2.34.864h.506v1.044H34V29.88h.735c1.1 0 1.827-.168 2.18-.502.35-.333.526-1.092.526-2.275V19.28c0-2.337-.152-3.76-.457-4.277-.275-.486-1.07-.73-2.386-.73H34V13.23c1.285-.153 2.432-.313 3.44-.48 1.01-.166 1.913-.416 2.71-.75h.504v12.738z"/>
		<ellipse cx="38.345" cy="2.327" rx="2.345" ry="2.327"/>
		<path d="M202.518 15.537c-2.073-1.68-4.056-2.518-5.947-2.518-3.933 0-5.9 2.727-5.9 8.18 0 2.698.533 4.796 1.6 6.294 1.068 1.5 2.532 2.248 4.392 2.248 2.258 0 4.21-1.05 5.856-3.147V15.537zm0-8.317c0-2.458-.106-3.882-.32-4.27-.333-.6-1.138-.9-2.413-.9h-.456v-.99c1.85-.03 3.81-.343 5.878-.943h.5v24.185c0 2.578.09 4.017.274 4.316.303.57 1.11.854 2.415.854h.32v.944l-.32.045c-1.975 0-3.782.18-5.423.54-.182-.84-.273-1.753-.273-2.74v-.45c-2.248 2.127-4.617 3.19-7.108 3.19-2.188 0-4.148-.87-5.88-2.607-1.792-1.858-2.688-4.24-2.688-7.148 0-2.726.85-5.02 2.553-6.877 1.732-1.83 3.888-2.743 6.47-2.743 2.34 0 4.496.884 6.47 2.652V7.22z"/>
	</g>
</svg>