<svg xmlns="http://www.w3.org/2000/svg" width="64" height="64" viewBox="0 0 103 103" class="icons"><title>Logo BD</title><g fill="none" fill-rule="evenodd"><path d="M0 103h103V0H0" fill="#D10910"/><path d="M46.833 43.328l2.088-1.76s1.32.19 4.158 2.432c.445-1.82 1.568-3.306 2.922-4.45-2.333-.878-4.486-2.036-8.635-4.55 0 0-4.86.12-7.365 2.81 0 0 2.044 3.733 6.833 5.518M68 65.082L60.67 60c-1.78 1.496-4.537 3.54-8.324 5.522-7.147 3.73-3.784 9.7-6.367 11.112 0 0 1.992.828 4.105.238 0 0-.12 2.473-4.805 3.416C40.587 81.228 40 84.41 40 87h13.487s-1.877-5.326 1.643-8.01c2.122-1.618 6.806-1.874 9.156-1.238 0 0-3.998-6.058 3.714-12.67" fill="#FFF"/><path d="M22.666 51.615c-3.927 0-5.395-.38-5.44-2.53-.047-2.672-.047-12.042-.047-12.042s2.555 0 4.255.047c2.46.096 7.95 1.12 7.95 7.165 0 5.626-2.747 7.36-6.72 7.36zm-5.44-29.98s1.183-.192 3.735-.192c3.737 0 6.67 1.504 6.67 6.422 0 4.497-2.22 6.742-6.764 6.742-1.42 0-3.687-.09-3.687-.09l.045-12.883zm17.408 5.758c0-6.088-4.92-8.286-11.497-8.385-4.02-.042-6.098.1-10.45.1-3.574 0-5.652-.022-6.687-.036v1.456c1.742.086 3.128.478 3.703 1.574.428.845.707 2.155.707 14.377 0 12.223-.28 13.583-.707 14.382-.62 1.23-1.776 1.592-3.703 1.634V54h18c6.426 0 13-2.58 13-9.7 0-7.726-10.076-9.036-10.076-9.036s7.71-1.543 7.71-7.87z" fill="#231F1F"/><path d="M16.924 82.015c-.045-2.524-.045-4.615-.045-11.537 0-5.378.035-12.195.043-13.5.623-.028 2.523-.113 4.632-.113 7.62 0 11.17 4.28 11.17 13.483 0 9.152-3.413 13.79-10.14 13.79-4.306 0-5.63-.497-5.66-2.123zM6 54v1.863c2.058.024 3.275.464 3.708 1.352.36.706.617 2.07.617 13.263 0 11.2-.257 12.556-.617 13.26-.524 1.033-1.44 1.402-3.507 1.402H6V87h18c7.502 0 16-5.21 16-16.652C40 60.112 33.575 54 23 54H6zM61.36 24.402c-.926.196-1.548-.137-2.022-.19 0 0 .04-.82 1.51-1.382 1.47-.563 2.698-.378 2.698-.378-.984.645-1.088 1.717-2.187 1.95M97 37.068c-.01-4.797-3.24-6.163-3.24-6.163s.807 3.762-2.652 3.075c-2.37-.466-6.216 1.237-4.782 4.717-11.68 2.606 9.214 16.186 5.592 19.91-2.03 2.092-5 1.726-7.18 1.02-.657-2.39-2.44-4.81-5.95-6.737-3.723-2.045-4.13-5.222-3.105-8.038 4.617-.256 6.21-3.686 6.21-3.686s-3.23 0-3.922-5.132c-.692-5.13 2.09-7.268 2.09-7.268-1.203-.212-2.117-.94-2.55-2.305-1.29-4.104-4.617-5.22-6.48-5.377-.01-1.782-.604-3.937-3.097-5.083 0 0 .348 2.735-.808 3.646.004 0-7.967-1.973-9.546 2.987-.324 1.146-4.087 1.598-6.152 3.808 0 0 .818 3.25 4.04 5.644 0 0 3.942-4.407 8.08-2.373 0 0 1.02 4.022-7.05 3.793 0 0 1.69 2.46 4.573 3.26 0 0-.036-2.667 5.373-2.435 0 0 .293 2.138-4.15 3.76-3.474 1.265-9.27 5.226-6.96 11.955-2.916.96-6.71 2.05-11.085 2.923 0 0-4.854 3.043-2.694 8.433 0 0 4.44 1.134 9.06-.983l-.09-2.664s.79-1.806 7.5-1.023c3.304.385 6.033-.633 7.963-2.352-.983 1.463-2.344 2.915-4.087 4.453 2.163 1.76 4.895 3.636 8.42 6.072 0 0-2.98 3.178-2.98 8.965 0 0 2.5 2.82 6.712 5.26 0 0 6.34-2.963 13.256-1.82 0 0 1.268 1.82-2.193 3.075-3.458 1.255-4.836 3.764-4.836 6.618h12.445s-2.396-4.542-.35-8.44c1.19-2.265 2.172-4.98.635-6.55-4.242.7-8.714 1.37-10.892.28 0 0-.113-2.51 1.846-6.158.34-.632.61-1.33.796-2.07 9.89 1.935 13.55-4.327 10.593-9.95-3.21-6.106-12.374-11.696-7.547-13.226C91.6 44.88 96.99 41.24 97 37.068z" fill="#FFF"/></g></svg>