<svg xmlns="http://www.w3.org/2000/svg" width="64" height="64" viewBox="0 0 103 103" class="icons"><title>Logo BN DeStem</title><g fill="none" fill-rule="evenodd"><path d="M0 103h103V0H0" fill="#D10910"/><g fill="#FFF"><path d="M15.74 75.835c-.67-.857-1.568-1.3-2.908-1.3h-2.94V88.26h2.94c1.34 0 2.238-.442 2.91-1.3.726-.948.838-2.458.838-5.652s-.112-4.525-.84-5.473m2.306 14.16C16.774 91.377 14.96 92 12.958 92H6V71h6.958c2.002 0 3.816.62 5.088 2.005 2.165 2.36 1.948 5.25 1.948 8.405 0 3.158.217 6.224-1.948 8.584M30.99 80.863c-.4-.93-1.23-1.62-2.49-1.62-1.262 0-2.09.69-2.492 1.62-.23.57-.316.992-.342 1.682h5.67c-.03-.69-.115-1.11-.345-1.682zm-5.324 4.356c0 2.01 1.173 3.48 3.262 3.48 1.633 0 2.436-.48 3.38-1.47l2.264 2.312c-1.52 1.59-2.98 2.458-5.67 2.458C25.378 92 22 90.32 22 83.987 22 78.883 24.634 76 28.5 76c4.152 0 6.5 3.183 6.5 7.477v1.742h-9.334zM36 89.275l2.578-2.61c1.287 1.304 3.034 1.74 4.923 1.74 2.348 0 3.61-.9 3.61-2.552 0-.727-.204-1.334-.63-1.74-.405-.377-.86-.582-1.805-.726l-2.462-.35c-1.745-.26-3.034-.81-3.95-1.71-.974-.988-1.46-2.323-1.46-4.06 0-3.687 2.69-6.267 7.098-6.267 2.807 0 4.838.696 6.587 2.408l-2.52 2.523c-1.29-1.245-2.835-1.42-4.178-1.42-2.12 0-3.152 1.19-3.152 2.61 0 .522.172 1.075.603 1.48.4.377 1.06.698 1.888.81l2.404.35c1.862.262 3.035.784 3.895 1.595C50.517 82.4 51 83.91 51 85.737 51 89.74 47.71 92 43.446 92c-3.096 0-5.44-.665-7.446-2.725zM57.95 92c-3.06 0-4.363-2.273-4.363-4.516v-7.817H52v-3h1.587V72h3.757v4.666H60v3h-2.656v7.576c0 .91.405 1.425 1.3 1.425H60V92h-2.05zM69.773 80.863c-.4-.93-1.228-1.62-2.49-1.62-1.26 0-2.09.69-2.49 1.62-.23.57-.316.992-.345 1.682h5.67c-.028-.69-.116-1.11-.345-1.682zm-5.108 4.356c0 2.01 1.173 3.48 3.265 3.48 1.632 0 2.432-.48 3.378-1.47l2.263 2.312C72.053 91.132 70.594 92 67.9 92c-3.522 0-6.9-1.68-6.9-8.013C61 78.883 63.634 76 67.5 76c4.15 0 6.5 3.183 6.5 7.477v1.742h-9.335zM93.29 92v-9.565c0-2.155-1.284-2.883-2.453-2.883-1.142 0-2.483.728-2.483 2.793V92h-3.706v-9.565c0-2.155-1.287-2.883-2.456-2.883-1.17 0-2.482.728-2.482 2.883V92H76V76.18h3.625v1.46c.97-1.064 2.34-1.64 3.71-1.64 1.654 0 2.994.636 3.937 2.003C88.526 76.606 89.868 76 91.722 76c1.482 0 2.822.515 3.65 1.397C96.573 78.67 97 80.16 97 81.89V92h-3.71zM30.268 54.487c2.358 0 4.22-.64 5.59-1.925 1.272-1.187 1.91-2.802 1.91-4.846 0-2.33-.732-4.066-2.195-5.206-1.462-1.14-3.3-1.708-5.517-1.708h-12.1v13.685H30.27zm-1.062-22.17c2.074 0 3.738-.487 4.99-1.46 1.248-.973 1.873-2.46 1.873-4.457 0-1.948-.602-3.432-1.805-4.455-1.2-1.022-2.842-1.534-4.916-1.534H17.956v11.906h11.25zM6 11h25.06c5.458 0 9.587 1.213 12.387 3.635 2.992 2.612 4.486 5.984 4.486 10.116 0 5.32-2.847 8.86-8.543 10.613v.287c3.417.807 6.04 2.34 7.866 4.594C49.084 42.5 50 45.267 50 48.544c0 2.563-.452 4.797-1.354 6.696-.905 1.9-2.183 3.514-3.845 4.844C41.62 62.697 37.255 64 31.703 64H6V11zM52 11v53h11V30.44M85.95 11v35.594L65.677 11H54l30.185 53H97V11"/></g></g></svg>