<svg xmlns="http://www.w3.org/2000/svg" width="64" height="64" viewBox="0 0 103 103" class="icons"><title>Logo de Stentor</title><g fill="none" fill-rule="evenodd"><path d="M0 103h103V0H0" fill="#D10910"/><g fill="#FFF"><path d="M10.924 91.7c.966 0 1.842-.327 1.842-1.21v-3.917c0-.9-.876-1.273-1.842-1.273H9.22v6.4h1.704zm0-8.7C13.038 83 15 84.09 15 86.573v3.917c0 2.467-1.962 3.51-4.076 3.51H7V83h3.924zM19.23 87.39h4.803v2.22H19.23v2.172h5.228V94H16.9V83h7.558v2.233H19.23M30.562 90.68c1.007 1.538 3.935 1.57 4.03.075.048-.92-.992-1.13-2.14-1.282-1.75-.255-3.56-1.04-3.53-3.394.125-2.022 2.065-3.08 4.064-3.08 1.45 0 2.836.545 3.763 1.887l-1.905 1.223c-.474-.694-1.136-1.012-1.86-1.012-.883 0-1.652.318-1.7 1.057v.015c.016.874.945.995 1.92 1.19 1.94.348 3.83 1.027 3.72 3.546C36.73 92.914 34.718 94 32.687 94c-1.45 0-2.93-.68-3.875-2.036l1.75-1.283zM42.96 85.297V94h-2.333v-8.703h-3.195V83h8.723v2.297M49.65 87.39h4.8v2.22h-4.8v2.172h5.226V94h-7.558V83h7.558v2.233H49.65M63.45 90.955c-.125-.715-.313-2.097-.33-2.332V83h2.314v11h-2.47l-3.403-5.78-.673-1.49-.16.03.3 1.88V94h-2.33V83h2.282l3.525 5.997.788 1.99.158-.032zM72.11 85.297V94h-2.33v-8.703H66.58V83h8.725v2.297M78.26 90.442c0 .902 1.134 1.34 2.27 1.34 1.133-.015 2.25-.454 2.25-1.34v-3.88c0-.92-1.134-1.375-2.267-1.36-1.12 0-2.252.47-2.252 1.36v3.88zm-2.3-3.88c0-2.383 2.284-3.58 4.57-3.562 2.283 0 4.565 1.19 4.565 3.563v3.88c0 2.364-2.282 3.557-4.565 3.557-2.286 0-4.57-1.178-4.57-3.558v-3.88zM91.255 87.895c1.022 0 1.667-.404 1.667-1.366 0-.934-.69-1.26-1.667-1.23h-2.063v2.595h2.063zm-1.245 2.08h-.818V94h-2.33V83h4.393c2.234 0 3.92 1.01 3.984 3.514 0 2.018-.93 2.995-2.538 3.306L96.027 94h-2.853l-3.164-4.024zM36.724 64.21c-.946 1.243-1.858 2.394-2.453 2.966-1.73 1.75-3.656 2.62-5.77 2.62-3.42 0-5.73-2.124-6.917-6.354-.627-2.337-.95-5.78-.95-10.39 0-4.3.323-7.63.993-9.995 1.253-4.408 3.723-6.586 7.22-6.586 2.4 0 4.316.714 5.773 2.113.485.47 1.273 1.372 2.104 2.368v23.26zm33.343-45.335c7.32 0 15.074 5.647 16.345 16.125H94V10h-6.826l-1.515 5.55C80.907 12.085 75.47 10 69.8 10 58.278 10 45.85 14.272 45.85 30.05c0 27.39 36.153 16.332 36.153 29.976 0 5.443-6.983 8.225-11.5 8.225-9.834 0-17.52-8.113-18.082-16.06v-5.06c-4.734-3.254-8.204-8.39-8.204-17.08 0-9.368 4.312-16.014 12.177-20.05h-25.44v8.378h2.5c2.625 0 3.27 1.437 3.27 4.088v12.58c-1.857-1.94-3.382-3.27-4.655-4.054-2.078-1.278-4.39-1.93-6.988-1.93-5.226 0-9.74 2.246-13.502 6.783C7.888 40.385 6 46.528 6 54c0 7.34 1.8 12.892 5.378 16.988C14.944 75.082 19.228 77.128 24 77c2.922.128 5.557-.63 8.025-2.093 1.4-.866 2.983-2.19 4.7-3.88V76H52.42v-3.76C55.77 74.392 61.74 77.128 71 77c11.468.128 25.83-5.02 26-20-.17-27.538-36.283-17.88-36.283-29.9 0-6.404 4.51-8.225 9.35-8.225z"/></g></g></svg>