<svg xmlns="http://www.w3.org/2000/svg" width="64" height="64" viewBox="0 0 103 103" class="icons"><title>Logo ED</title><g fill="none" fill-rule="evenodd"><path d="M0 103h103V0H0" fill="#0052A3"/><g fill="#FFF"><path d="M20.735 31H6v54h38V73.276H20.735v-16.92H44V44.63H20.735V31M6 29h38V18H6M60.354 69.938h4.84c5.1 0 9.27-1.618 12.405-4.803 3.125-3.183 4.708-7.74 4.708-13.536v-.2c0-5.732-1.583-10.27-4.706-13.488-3.13-3.218-7.31-4.85-12.407-4.85h-4.84v36.876M64.92 18c5.087 0 9.68.82 13.645 2.44 3.95 1.61 7.323 3.905 10.033 6.807 2.713 2.91 4.81 6.425 6.238 10.444C96.273 41.74 97 46.254 97 51.104v.198c0 4.855-.74 9.4-2.204 13.513-1.454 4.09-3.582 7.673-6.322 10.65-2.738 2.967-6.158 5.325-10.165 7C74.294 84.146 69.674 85 64.585 85H46V18h18.922"/></g></g></svg>