<svg xmlns="http://www.w3.org/2000/svg" width="64" height="64" viewBox="0 0 103 103" class="icons"><title>Logo de Gelderlander</title><g fill="none" fill-rule="evenodd"><path d="M0 103h103V0H0" fill="#D10910"/><g fill="#FFF"><path d="M51 38.276c-.672-.557-1.546-1.335-2.405-2.276 0 0-8.483 3.35-9.595 14 0 0 3.023-.713 4.482-2.84 0 0 .518-3.948 4.224-6.64 0 0 .447.877 1.262 1.74.664-1.67 1.384-2.986 2.032-3.984M71.423 70.353v-.004c-.425-1.916-.848-4.575-.438-7.056-1.82-2.107-3.54-4.277-8.202-6.294l-.133 2.82c-.14 3.022-1.18 5.54-2.372 7.49 0 0 2.215 5.907 7.06 10.082 0 0-8.2 4.988-9.338 9.333 0 0 3.258.736 5.59-.2 0 0 2.064-4.585 8.41-8.388 0 0-5.412-6.957-.577-7.784"/><path d="M90.468 71.03c2.087.93 3.185-1.35 3.185-1.35-2.32.62-3.49-2.824-3.49-2.824-.25-1.25-.94-2.408-.94-2.408-2.058-2.978-4.103-2.772-5.532-2.978 0 0 .72-2.973-.453-6.332C92.38 61.365 96.1 52.524 96.1 52.524c-3.72 1.263-8.133-1.194-8.885-4.803-.753-3.61.738-6.57 1.763-8.363 1.023-1.796 2.244-3.444 2.068-5.24-.13-1.33-.79-3.93-1.764-4.65-1.802-1.047-3.96.948-6.285 1.464-3.17.815-2.26-2.316-2.26-2.316-.166.095-1.156.782-2.136 1.97-.344.42-.787 1.018-1.213 1.614.37-.125.81-.225 1.4-.254.93-.042 3.43-.08 3.7 1.223.235 1.126-2.007 3.462-2.332 5.64-.377-.78-1.06-1.404-1.926-1.71l.252-1.318 1.3.238.198-1.035-1.298-.24.246-1.266-1.06-.194-.242 1.267-1.3-.24-.198 1.04 1.298.234-.254 1.32c-1.635-.042-3.108 1.067-3.42 2.687-.348 1.8.866 3.534 2.706 3.87.54.1 1.075.065 1.57-.076-.58.31-1.245.486-1.96.486-2.288 0-4.017-1.628-4.017-4.226 0-2.98 2.877-3.76 3.393-6.71l2.444-15.862-.42-4.072-1.687 3.837-2.196 11.446c-.97-7.28-5.897-9.023-5.897-9.023s.32-2.453-.277-4.518c0 0-.547 2.213-2.467 2.7 0 0-1.652-1.9-4.894-2.59 0 0 2.375 2.256.793 4.017-.876.98-2.372 2.79-4.796 5.536-2.424 2.742-4.3 6.492-4.3 6.492s1.325 1.172 2.083 1.988c0 0 1.88-2.51 3.702-1.63 0 0-1.42 1.473-2.807 2.035 1.048.567 2.193.376 2.193.376 1.75-2.366 5.684-4.193 5.684-4.193 2.285-1.127 3.285-2.913 3.046-4.78.034.092.77 2.138-1.173 4.527-.2.204-.365.4-.536.593-.42.423-.956.81-1.542 1.282-2.812 2.256-4.56 4.8-5.474 7.43-.787-.653-1.806-1.52-2.66-2.295 0 0-6.264 5.188-6.264 18.346 0 0 4.212-.096 4-3.718 0 0-.978-5 2.938-9.526 0 0 .478.392 1.082.963 1.71 1.35 3.398 3.47 8.498 4.615 0 0-2.598.71-7.98-1.777 0 0 .23 6.155 9.68 11.135 0 0 1.357.67 3.362 2.538 1.417 1.318 1.85 3.326 1.85 3.326s.503-1.917 1.53-3.507c1.03-1.593 2.2-2.383 2.2-2.383-3.252 3.605-5.48 13.57 2.92 22.423 0 0 .32 5.977-3.905 10.756 0 0 2.745 1.312 5.593-.012 0 0 .582-6.328 2.694-10.89 0 0-2.27-2.992-2.535-6.918 0 0 2.706-2.595 3.607-7.926 1.202.37 2.568 1.182 2.88 3.31.428 2.888-3.288 7.896-.377 13.416.744 1.407 2.252 2.655 4.678 2.926 4.413.497 6.285-4.82 6.285-4.82-5.002 2.465-6.67-2.287-6.614-4.272.027-.99.075-2.086.082-3.203z"/><path d="M79.255 24.082c-.137 2.766 1.27 4.813 3.574 4.915 1.653.07 3.136-1.026 3.893-2.672l1.276.313s.027-1.405-.215-2.136c-.52-1.55-.72-1.882-.72-1.882-.04-.12-.08-.248-.126-.37-.72-2.33.67-3.91.67-3.91l-3.48.687L82.755 17l-1.595 1.916L79 17.624s1.05 1.842.6 4.538c-.192.618-.313 1.272-.345 1.92zM27.463 46.93v2.08l.146.346H37V47.97c-2.965-.542-3.21-.542-3.21-2.625V15.397L33.44 15l-8.894 1.287v1.387l1.777.345c.84.15 1.087.396 1.087 2.328l.053 4.85c-1.14-.394-2.524-.594-4.056-.594-3.807 0-6.92 1.188-8.95 3.268C12.335 30.1 11 33.316 11 37.722 11 45 14.507 50 20.638 50c1.978 0 4.35-1.04 6.825-3.07m0-15.196v10.05c0 .79-.053 1.53-.3 2.275-.543 1.78-1.83 2.822-4.005 2.822-3.36 0-5.387-3.612-5.387-9.95 0-7.18 2.375-10.546 5.637-10.546 1.876 0 3.064 1.04 3.658 2.426.398.842.398 1.98.398 2.922M12.61 86.915C8.835 84.218 6 79.095 6 71.44c0-4.462.945-9.195 3.777-12.997 2.776-3.69 7.5-6.443 15.22-6.443 3.948 0 8.28.664 11.34 2.313v9.362H34.5c-1.333-5.395-4.167-9.637-9.56-9.637-8.773 0-10.83 9.912-10.83 16.466 0 5.067 1.113 17.4 10.777 17.4 1.616 0 2.67-.107 3.558-.494.78-.33 1.11-.828 1.11-2.205v-8.37c0-2.477-.61-2.42-5.5-2.806v-1.6H40v1.542c-2.775.442-3.165.497-3.165 2.922v10.628C33.335 89.008 28.5 90 24.78 90c-3.724 0-8.392-.386-12.17-3.085"/></g></g></svg>