<svg xmlns="http://www.w3.org/2000/svg" width="64" height="64" viewBox="0 0 103 103" class="icons"><title>Logo PZC</title><g fill="none" fill-rule="evenodd"><path d="M0 103h103V0H0" fill="#0052A3"/><g fill="#FFF"><path d="M20.477 13.585h4.05c2.226 0 4.014 1.587 4.014 4.112 0 2.407-1.71 3.906-4.274 4.046v-.002c-.127.007-.245.03-.37.03h-3.42v-8.185zm11.33-2.62c-1.637-.668-3.71-.965-6.168-.965H9v3.585h2.464c.99 0 1.55.61 1.55 1.626V31.788c0 1.018-.56 1.63-1.55 1.63H9.04V37h15.648v-3.587l-.425.003h-2.236c-.354 0-.634-.1-.868-.248-.43-.264-.683-.726-.683-1.38V25.35h4.368c2.717 0 4.96-.294 6.7-.948 2.126-.803 3.502-2.15 4.104-4.156.23-.768.35-1.625.35-2.59 0-3.478-1.494-5.593-4.194-6.694zM14.69 80.832c-.005-.282-.012-.56-.012-.853 0-1.48.11-2.783.32-3.93.78-4.342 3.006-6.345 6.522-6.345 4.518 0 6.758 3.466 6.758 7.57H32V66.19h-3.6l-.8 2.48C25.84 66.996 21.602 66 19.602 66c-1.62 0-3.147.254-4.56.713-1.288.414-2.475 1.01-3.54 1.765-2.55 1.813-4.377 4.55-5.12 7.973C6.143 77.56 6 78.736 6 79.98v.016c.002 2.987.608 5.49 1.698 7.52C10.005 91.827 14.498 94 20.12 94c1.055 0 2.04-.08 2.972-.225C28.67 92.9 31.896 89.41 32 83.127h-3.722c0 3.706-2.24 7.17-6.436 7.17-5.345 0-7.006-3.668-7.15-9.465M18.134 38H8.44v10.303h3.708c0-4.886 1.472-6.72 6.935-6.72h4.266l-3.712 4.763-3.64 4.674L8 61.295V65h23.918V53.963h-3.706c0 5.457-1.435 7.453-6.935 7.453h-4.625L28.975 45.56l2.502-3.226.523-.67V38H18.134zM41.59 31.47s1.713.54 5.025 4.53c.84-1.543 1.95-3.067 3.385-4.358-1.966-1.207-3.466-3.085-4.068-7.887 0 0-4.384-4.14-8.932-3.726 0 0 1.92 4.9.786 11.318l3.804.122z"/><path d="M90.63 82.214l.025-.018s-4.35-.205-7.524-2.66c0 0 1.136-3.59.165-7.767 1.112.302 2.417.542 3.784.542 2.31 0 4.78-.688 6.7-2.926 3.842-4.48.1-8.872-4.29-13.12-1.64-1.582-3.326-3.22-4.79-4.97-1.5-1.794-2.623-3.465-3.406-5.006-2.714-7.1 2.92-8.946 6.89-9.398 4.343-.5 7.68-2.694 7.78-6.068.097-3.38-2.886-3.73-2.886-3.73 1.396 1.48.938 4.582-3.993 3.887-4.013-.573-7.764.9-9.706 4.272-1.2 2.066-1.613 4.008-1.603 6.125-.028.555-.004 1.117.078 1.7v.04h.003c.41 2.842 2.09 6.006 5.105 9.61 1.54 1.846 3.272 3.522 4.95 5.14 4.737 4.586 6.503 7.307 4.148 10.065-2.785 3.252-7.51 1.99-9.69 1.166-.484-1.046-1.123-2.097-1.994-3.1-5.154-5.96-10.3-3.374-10.3-12.23 0-8.254 5.3-8.564 7.087-19.508.128-.75.29-1.99.408-2.956 1.08.14 1.888-.057 1.888-.057-1.092-2.635-.592-4.386-.584-8.734.005-4.347-3.228-6.195-3.228-6.195 2.756-.903 3.124-5.144 3.124-5.144-3.675-.802-6.724 1.162-6.724 1.162C72.852 10.744 71.77 9 71.77 9c-1.392 1.28-3.57 1.316-5.783 1.29-2.69-.39-6.75-.35-8.112 3.042-.438 1.212-4.57 1.41-6.985 3.642 0 0 .045 2.22 3.372 5.042 0 0 4.09-3.68 7.258-2.61 1.46.55 1.75 1.46 1.805 1.902-.557-.068-1.33-.078-2.38.108-2.447.427-4.08 1.905-6.853 2.394-2.775.485-3.503-2.07-1.835-3.01 0 0-2.333-.732-4.057 1.138-1.72 1.865-.19 5.3 4.556 4.464 4.764-.838 6.64-4.174 10.357-3.94-.52 1.456-2.022 3.33-6.355 3.228 0 0 .775 2.064 3.847 3.144 0 0 .168-2.882 6.042-2.222 0 0 .175 1.868-2.756 2.83-1.84.602-5.266.997-8.127 2.186-6.69 2.696-8.713 10.27-8.52 13.078 0 0 .795-1.11 1.796-1.18 0 0-.15 4.058 2.628 8.42-1.588 2.944-4.46 6.253-9.616 7.217 0 0-2.395 3.386.042 7.744 0 0 2.68-1.778 7.213-3.13l-.313-2.552s6.538-6.97 12.364-6.297c-1.584.416-2.994 1.41-4.21 2.61 5.403 4.815 8.758 3.725 11.445 8.74 2.328 4.346-2.066 8.495 1.15 14.106 2.122 3.7 7.245 5.807 16.41 5.738l.014-.01c.184.002.337.017.528.01 0 0 3.1.313 4.603 2.873 0 0-1.102 2.04-8 1.133-5.253-.688-6.04 1.375-4.4 3.872H97s-.82-5.327-6.37-11.786"/><path d="M63.805 64c-5.702 5.19-12.75 4.186-12.75 4.186-8.067 6.553-5.04 12.27 1.798 15.417 5.623 2.59 5.45 5.234 5.45 5.234s-1.067 2.32-6.318 1.52c-7.814-1.183-8.81 1.042-7.504 3.643h17.716s2.358-9.443-3.7-15.635c4.004-.645 6.49-2.68 8.084-4.936.392-2.192.82-4.245-.286-6.336-.765-1.444-1.584-2.375-2.49-3.094"/></g></g></svg>