<svg xmlns="http://www.w3.org/2000/svg" width="64" height="64" viewBox="0 0 103 103" class="icons"><title>Logo Tubantia</title><g fill="none" fill-rule="evenodd"><path d="M0 103h103V0H0" fill="#D10910"/><g fill="#FFF"><path d="M55.86 60.41c.075-.69.263-1.402.592-2.15.166-.418.36-.82.6-1.183 0 0-2.627-1.2-6.41-1.153-.008 2.48.214 5.367.915 8.38 0 0-3.04-.294-9.24.398 0 0-3.396 3.632-2.9 8.99 0 0 3.848-.52 6.048-1.21 0 0-.57-2.588.008-4.655 0 0 4.33-.876 10.767.68 0 0-1-4.32-.38-8.098M31.22 32.81s.385 3.282 2.746 6.132c.375-2.37 1.467-4.323 2.876-5.952-1.473-1.404-3.115-3.137-4.467-4.99 0 0-12.044 2.334-12.375 12.653 0 0 2.644.495 5.784-2 0 0-1.53-4.53 5.436-5.843"/><path d="M81.642 46.285c2.103-2.42 2.95-6.596-.757-9.507-2.85-2.242-4.842-3.56-5.553-6.018-.714-2.46 1.933-2.96 1.933-2.96-2.358-.925-4.76-.174-5.22 3.05-.477 3.356 2.235 5.394 2.578 5.635-1.85-1.246-3.21-2.456-3.75-3.597-2.692-5.664 5.638-8.034 6.604-14.206.97-6.173-4.59-8.73-7.286-6.28-2.69 2.457.848 4.758.848 4.758-1.613-2.94 2.408-3.37 2.914-1.49.645 2.393-2.154 6.817-7.034 10.623-4.88 3.805-1.348 8.54-1.348 8.54-1.86-.217-2.86-1.437-2.86-1.437-.507 4.65 2.187 6.086 6.817 7.528 4.625 1.437 5.975 2.133 5.975 2.133-1.936-.062-3.195 1.403-3.195 1.403 3.035.24 7.064 3.105 5.08 5.472-.926 1.107-2.072.864-3.063.28-2.206-8.51-12.876-9.208-12.876-9.208-1.896-2.79-4.167-4.312-4.167-4.312C68.517 12.087 45.66 6 45.66 6c.46 1.207.647 2.197.724 2.863-1-.428-2.134-.57-3.28-.345-3.036.594-5.024 3.537-4.46 6.586.148-1.752 1.43-3.264 3.232-3.62.873-.17 1.737-.04 2.482.313-5.128 5.88-6.005 14.496-6.005 14.496s2.005 1.112 3.254 2.067c0 0 1.572-2.576 4.264-2.576 0 0-2.444.734-2.692 2.437 0 0 2.05.898 3.573-1.063 1.99-2.567 1.355-5.783 3.768-6.718-.026 2.5-1.528 7.09-5.764 9.824-3.8 2.448-8.13 6.02-8.338 11.887-5.078.7-7.194-.55-7.194-.55-7.072 11.33 3.197 23.847 3.197 23.847 4.204-2.027 3.15-6.428 3.15-6.428-7.457-5.41-3.596-11.71-3.596-11.71 8.14 5.713 14.75.377 15.017-.13-.032.377-1.763 3.73-5.68 5.435 3.368 1.994 7.684 1.567 10.545 1.328 4.546-.38 7.828 2.537 7.828 2.537-5.053 7.865 6.183 12.936 6.183 12.936-6.314 4.697-10.153 10.488-9.985 13.195 3.618 1.103 8.19-.488 8.19-.488.375-1.025.8-2.024 1.253-2.997.303.407.596.99.688 1.828 0 0 1.238-1.663 1.003-5.118 2.47-4.403 5.036-7.558 5.036-7.558-1.456-2.72-1.948-5.088-2.104-6.733 2.31-2.005 4.748-5.072 4.69-9.01.844.057 1.634.41 2.21 1.242 2.104 3.053 3.87 2.45 3.87 2.45-2.062-2.27-1.513-3.467-1.513-3.467 1.178.43 3.027-.34 3.024-2.876 0-2.536 1.773-3.6 1.773-3.6-1.346-.557-2.358 0-2.358 0"/></g><g fill="#FFF"><path d="M66.8 95.778c-2.163 0-2.163.074-2.927.043-.07-.102-.086-.362 0-.494.348-.09.606.015.95-.335.375-.364.42-1.078.42-3.032 0-2.348-.446-2.67-1.716-2.67-.993 0-1.7.44-2.104.776v1.894c0 1.954.03 2.668.42 3.033.33.35.59.247.933.336.09.132.074.392 0 .495-.762.032-.732-.042-3.212-.042-2.16 0-2.29.074-3.055.043-.073-.102-.086-.362 0-.494.345-.09.75.015 1.067-.335.374-.364.417-1.078.417-3.032 0-1.59 0-2.48-.432-2.846-.39-.32-.823-.29-1.18-.347-.073-.103-.073-.365-.015-.512.705-.117 4.41-.29 5.142-.188-.042.35-.057.684-.057 1.12.62-.51 1.8-1.237 3.92-1.237 3.517 0 3.3 1.603 3.3 4.01 0 1.954.015 2.668.39 3.033.315.35.72.247 1.08.336.07.132.057.392 0 .495-.778.032-.864-.042-3.344-.042M18.536 87.532c-.98-1.49-1.124-1.93-2.466-1.93h-1.657s-.013.674-.013 4.566c0 3.617-.028 4.3.42 4.738.315.352.978.365 1.322.454.09.132.074.392 0 .495-.762.03-1.123-.043-3.6-.043-2.163 0-2.853.074-3.632.043-.06-.103-.07-.363 0-.495.346-.09.965-.102 1.283-.454.36-.36.432-1.002.432-4.738 0-3.892-.015-4.565-.015-4.565H9.125c-1.554 0-1.513.425-2.535 2.42-.07.103-.432.06-.576 0-.087-.755.244-2.843.475-3.628.937.1 3.385.19 6.12.19 2.755 0 5.103-.09 6.04-.19.26.904.52 2.393.46 3.137-.126.06-.503.102-.574 0"/><path d="M26.102 95.737c.03-.35.045-.685.074-1.123-.635.54-1.79 1.24-3.894 1.24-3.514 0-3.3-1.604-3.3-4.01 0-1.606 0-2.45-.43-2.815-.374-.322-.82-.293-1.182-.352-.073-.1-.073-.364-.015-.51.706-.114 4.41-.29 5.144-.19-.087 1.02-.087 1.983-.087 3.865 0 2.348.446 2.668 1.717 2.668.978 0 1.654-.422 2.046-.758l.012-1.91c0-1.56 0-2.45-.446-2.813-.376-.322-.807-.293-1.182-.352-.057-.1-.057-.364-.014-.51.72-.114 4.407-.29 5.16-.19-.103 1.006-.103 1.547-.103 3.865 0 1.59 0 2.48.45 2.843.373.32.82.292 1.178.353.06.113.06.36.016.507-.72.117-4.41.29-5.144.19M44.067 91.732c0-2.423-1.47-3.733-4.493-3.733-1.934 0-2.955.686-3.505 1.21.014-3.136.088-3.88.16-4.784-.737-.102-4.512.072-5.23.19-.045.145-.045.393.012.495.36.06.807.03 1.18.366.448.365.463 1.122.463 4.68 0 3.122-.028 4.054-.1 5.76.158.073.345.06.474.014 1.124-.334 2.162-.584 2.837-.7.535.38 1.44.745 2.798.745 3.34 0 5.402-1.385 5.402-4.243zm-3.588.32c0 2.115-.936 3.034-2.41 3.034-.905 0-1.552-.365-2-.76v-4.27c.375-.306 1.05-.747 2.033-.747 1.41 0 2.376.597 2.376 2.742zM55.286 95.662c.045-.144.045-.393-.014-.51-.362-.06-.808-.026-1.182-.35-.45-.364-.433-1.254-.433-2.842.016-2.714.112-3.954-3.387-4.01-3.198-.058-4.28 1.572-4.28 1.572-.07.22-.03.66.058.803.158-.174.98-1.035 2.378-1.035 1.197 0 1.687.483 1.815 1.778-1.8.324-5.62.453-5.62 2.89 0 1.734 1.397 1.982 2.594 1.982 1.457 0 2.41-.57 3.114-1.24.017.44.017.775-.03 1.125.736.1 4.267-.044 4.988-.163zm-4.988-1.558c-.403.347-.877.627-1.48.627-.826 0-1.084-.727-1.084-1.312 0-1.252 1.124-1.515 2.536-1.676 0 1.065.015 1.82.028 2.362zM73.83 96.05c-2.136 0-2.77-.423-2.77-3.514 0-.452.073-3.587.073-3.587s-1.123-.06-1.5-.12c-.056-.102-.056-.348-.013-.51.72-.39 2.276-1.326 5.03-2.346-.057.365-.103 1.268-.115 2.303.69-.012 2.217-.074 2.868-.074.07.205.086.627 0 .877-.65 0-2.207-.074-2.868-.117-.045 1.28-.045 2.52-.045 3.077 0 2.2.057 2.506 1.053 2.506.95 0 1.684-.785 1.845-.96.07.146.114.583.027.8 0 0-.72 1.663-3.585 1.663M81.41 95.77c-2.16 0-2.29.072-3.053.042-.07-.103-.086-.363 0-.495.345-.09.75.015 1.067-.32.374-.38.42-1.094.42-3.034 0-1.59 0-2.467-.435-2.83-.39-.335-.822-.307-1.185-.364-.07-.104-.07-.352-.013-.497.72-.114 4.685-.293 5.39-.19.06.145.06.35-.04.525-.248.585-.29-.306-.29 3.355 0 1.94.027 2.653.417 3.033.317.336.72.232 1.065.32.087.133.07.393 0 .496-.765.03-.864-.043-3.344-.043zm-.056-8.592c-.953 0-1.96-.334-1.96-1.603 0-1.21 1.04-1.575 1.96-1.575.936 0 1.975.366 1.975 1.575 0 1.27-.91 1.603-1.976 1.603zM96.25 95.662c.042-.144.042-.393-.016-.51-.36-.06-.808-.027-1.182-.35-.447-.364-.43-1.254-.43-2.842.01-2.714.112-3.954-3.39-4.01-3.195-.058-4.28 1.572-4.28 1.572-.07.22-.026.66.06.803.158-.174.98-1.035 2.38-1.035 1.193 0 1.683.483 1.81 1.778-1.8.324-5.618.453-5.618 2.89 0 1.733 1.398 1.98 2.595 1.98 1.455 0 2.405-.567 3.112-1.237.015.44.015.775-.03 1.125.734.1 4.265-.044 4.987-.163zm-4.988-1.558c-.404.347-.88.627-1.484.627-.82 0-1.08-.73-1.08-1.312 0-1.255 1.124-1.515 2.534-1.677 0 1.067.017 1.823.03 2.364z"/></g></g></svg>